Genre:Horror | Thriller
Language:English
IMDb:http://www.imdb.com/title/tt1085779/
Source:720p.BluRay.X264-AMIABLE

General
Complete name :The.Hole.2009.720p.BRRip.H264.Feel-Free
Format : MPEG-4
Format profile : Base Media
Codec ID : mp42
File size : 1.27 GiB
Duration : 1h 32mn
Overall bit rate : 1 963 Kbps
Video #1
ID : 1
Format : AVC
Format/Info : Advanced Video Codec
Format profile : Main@L5.1
Format settings, CABAC : Yes
Format settings, ReFrames : 1 frame
Codec ID : avc1
Codec ID/Info : Advanced Video Coding
Duration : 1h 32mn
Bit rate mode : Variable
Bit rate : 1 482 Kbps
Width : 1 280 pixels
Height : 688 pixels
Display aspect ratio : 1.860
Frame rate mode : Constant
Frame rate : 23.976 fps
Resolution : 24 bits
Colorimetry : 4:2:0
Scan type : Progressive
Bits/(Pixel*Frame) : 0.070
Stream size : 979 MiB (76%)
Audio #2
ID : 2
Format : AAC
Format/Info : Advanced Audio Codec
Format version : Version 4
Format profile : LC
Format settings, SBR : No
Codec ID : 40
Duration : 1h 32mn
Bit rate mode : Constant
Bit rate : 476 Kbps
Nominal bit rate : 480 Kbps
Channel(s) : 6 channels
Channel positions : Front: L C R, Rear: L R, LFE
Sampling rate : 48.0 KHz
Resolution : 16 bits
Stream size : 314 MiB (24%)

Plot:
A pair of brothers stumble upon a mysterious hole in their basement that leads to the darkest corridors of their fears and nightmares.


screens
 
http://rapidhdd.com/images/713451vlcsnap-2010-11-19-21h06m28s177.png 
http://www.rapidhdd.com/images/433431vlcsnap-2010-11-19-21h13m58s60.png 
http://www.rapidhdd.com/images/682938vlcsnap-2010-11-19-21h07m16s144.png 
http://www.rapidhdd.com/images/502208vlcsnap-2010-11-19-21h14m57s136.png 
http://www.rapidhdd.com/images/531730vlcsnap-2010-11-19-21h12m43s88.png